<svg width="14" height="14" viewBox="0 0 14 14" fill="none" xmlns="http://www.w3.org/2000/svg">
<path d="M1.33341 13.6666C1.1566 13.6666 0.987035 13.5963 0.86201 13.4713C0.736986 13.3463 0.666748 13.1767 0.666748 12.9999V0.999919C0.666748 0.823108 0.736986 0.653538 0.86201 0.528514C0.987035 0.40349 1.1566 0.333252 1.33341 0.333252H10.6667C10.8436 0.333252 11.0131 0.40349 11.1382 0.528514C11.2632 0.653538 11.3334 0.823108 11.3334 0.999919V2.99992H10.0001V1.66659H2.00008V12.3333H10.0001V10.9999H11.3334V12.9999C11.3334 13.1767 11.2632 13.3463 11.1382 13.4713C11.0131 13.5963 10.8436 13.6666 10.6667 13.6666H1.33341ZM10.0001 9.66659V7.66659H5.33341V6.33325H10.0001V4.33325L13.3334 6.99992L10.0001 9.66659Z" fill="#667085"/>
</svg>
